<svg width="70" height="69" viewBox="0 0 70 69" fill="none" xmlns="http://www.w3.org/2000/svg">
<g clip-path="url(#clip0_398_5341)">
<path d="M56.0112 47.0416C56.3063 50.0993 54.5061 52.2773 51.262 52.3945C51.1099 55.9377 49.7439 57.4833 46.3885 57.8255C46.511 59.1777 46.2345 60.4294 45.2601 61.4542C44.2858 62.4791 43.0906 62.8083 41.734 62.7562C41.7934 67.0843 37.4784 68.788 34.6241 66.7997C33.544 68.4011 32.0686 69.279 30.0995 68.9256C28.1898 68.5834 27.0002 67.3781 26.4712 65.5182C23.526 66.7086 20.7885 64.9602 20.2077 62.1461C18.6858 62.7041 17.2123 62.6148 15.8612 61.6811C14.5101 60.7475 13.9181 59.4343 13.8606 57.7995C13.1312 57.7995 12.4056 57.9166 11.7282 57.7809C10.941 57.6278 10.205 57.2784 9.58827 56.7649C8.97153 56.2514 8.49392 55.5903 8.19961 54.8428C7.90529 54.0953 7.80377 53.2855 7.90442 52.4882C8.00507 51.691 8.30465 50.9321 8.77546 50.2816C9.25427 49.599 9.78877 48.9554 10.2973 48.2952C10.3956 48.1668 10.5738 48.0385 10.5775 47.9064C10.6202 46.7793 10.752 45.6355 10.5998 44.5325C10.5255 43.9875 9.91125 43.5188 9.56606 43.0446C8.98332 43.4165 8.59173 43.7588 8.13518 43.9429C7.76792 44.095 7.36605 44.1432 6.97336 44.0822C6.58067 44.0212 6.21222 43.8533 5.90813 43.597C4.23784 42.3062 2.57868 41.0116 0.949224 39.6762C-0.129041 38.7909 -0.208843 37.4201 0.693113 36.1944C4.11411 31.5322 7.54625 26.8681 10.9895 22.2021C11.4145 21.6236 11.8265 21.034 12.2719 20.4705C13.1999 19.3062 14.5973 19.1146 15.7684 20.0185C17.3812 21.2628 18.9735 22.535 20.5658 23.8072C20.9027 24.0577 21.1665 24.3941 21.3297 24.7814C21.4929 25.1687 21.5495 25.5927 21.4938 26.0094C21.4047 26.8185 21.865 27.3876 22.7075 27.4136C23.6559 27.4453 24.6061 27.4248 25.5544 27.4248C25.9015 27.4248 26.2504 27.4006 26.5956 27.4248C28.1267 27.5531 29.4128 27.3206 30.6544 26.1321C32.2857 24.5735 34.4534 24.5903 36.621 24.9474C40.1342 25.5277 43.6622 26.0131 47.1847 26.532C48.5246 26.7292 49.5101 25.9034 50.5642 25.3045C50.6682 25.2468 50.6886 24.9846 50.6941 24.8153C50.722 23.7086 51.2249 22.9182 52.2364 22.4662C54.2778 21.5493 56.3193 20.6249 58.3812 19.7321C59.7842 19.1239 61.1075 19.6521 61.6828 21.0694C64.3689 27.6734 67.0426 34.2836 69.7039 40.9C70.2607 42.295 69.7447 43.5728 68.3825 44.1884C66.341 45.1184 64.281 46 62.234 46.917C61.4805 47.2536 60.7697 47.1904 60.0274 46.8649C59.664 46.6991 59.2662 46.6232 58.8674 46.6435C57.9284 46.731 56.993 46.9002 56.0112 47.0416ZM35.682 65.2001C36.1384 65.5725 36.7099 65.7741 37.2984 65.7703C37.8869 65.7666 38.4558 65.5578 38.9075 65.1797C39.3541 64.8008 39.6543 64.2771 39.756 63.6996C39.8577 63.122 39.7545 62.527 39.4642 62.0178C39.2168 61.6289 38.9027 61.2869 38.5363 61.0078C36.6359 59.492 34.7095 58.0059 32.8016 56.4975C32.2876 56.092 32.1948 55.5192 32.5567 55.1044C32.9668 54.6357 33.4382 54.658 33.9133 55.0077C34.2492 55.2551 34.574 55.5192 34.9025 55.7758C36.8382 57.2861 38.7627 58.8113 40.7132 60.3011C42.2592 61.4821 44.2784 60.7028 44.5159 58.8466C44.6421 57.8776 44.2116 57.1466 43.4358 56.5905C41.2682 55.043 39.103 53.4931 36.9402 51.9406C36.7442 51.815 36.558 51.6745 36.3835 51.5203C36.0234 51.1595 35.9381 50.674 36.2925 50.343C36.5412 50.1105 37.0089 50.0472 37.3838 50.0361C37.5917 50.0361 37.8106 50.2853 38.0185 50.4322C40.3142 52.0783 42.6025 53.7355 44.9094 55.3666C46.2252 56.2966 47.8955 56.0437 48.8067 54.8254C49.7458 53.57 49.4934 51.8979 48.2054 50.8712C47.9345 50.6554 47.6487 50.4546 47.3703 50.2481L40.8432 45.4123C40.0507 44.8245 39.8651 44.3354 40.2326 43.8202C40.6 43.305 41.1494 43.3161 41.9771 43.9299L43.0368 44.7166C45.3808 46.4538 47.7192 48.2003 50.0724 49.9245C50.4836 50.255 50.9888 50.4464 51.5153 50.4711C52.0418 50.4959 52.5626 50.3527 53.0029 50.0621C53.9011 49.5227 54.2482 48.6709 54.1739 47.633C54.1479 47.2703 54.0366 47.075 53.606 47.0248C51.9393 46.8076 50.3666 46.1265 49.0665 45.0589C48.3595 44.5009 47.6579 43.928 46.9527 43.3626C44.1169 41.086 41.2824 38.8076 38.4491 36.5273C37.2539 35.5602 36.0104 35.3965 34.6557 36.1553C34.2529 36.3804 33.8372 36.5869 33.4178 36.7803C30.981 37.8962 28.522 37.9279 25.9943 37.0295C23.2105 36.04 23.0249 32.9749 24.8937 31.4497C25.6454 30.8341 26.2263 30.0101 26.8888 29.2792H24.2887C22.8616 29.2792 21.3861 29.48 20.2967 28.1632L10.4049 41.5808C11.8265 42.4085 12.632 43.5932 12.5262 45.3806C14.2503 43.809 16.0839 43.3477 18.0938 44.2238C20.1037 45.0998 20.9444 46.8147 20.9927 48.9499C22.598 48.6839 23.9528 49.0819 25.0756 50.1551C26.1984 51.2283 26.6086 52.5879 26.5269 54.1447C27.8557 54.0517 28.9767 54.3902 29.9139 55.2606C30.8511 56.1311 31.2501 57.2768 31.2835 58.5453C34.9081 58.0301 37.6176 61.6328 35.682 65.2001ZM51.4161 27.01C50.9261 27.2797 50.4993 27.5011 50.0836 27.7447C49.0183 28.3715 47.8714 28.5147 46.6669 28.338C42.9551 27.7912 39.2527 27.263 35.5502 26.6901C33.8131 26.4204 32.3599 26.9096 31.1091 28.1148C29.4592 29.7069 27.7963 31.2879 26.1483 32.8837C25.1833 33.8137 25.367 34.7195 26.6253 35.2291C29.0583 36.2111 31.3782 35.8782 33.6127 34.5986C35.7989 33.3468 37.8274 33.5849 39.7779 35.1752C43.2038 37.9725 46.6539 40.7413 50.1281 43.4816C50.7507 43.9595 51.4256 44.3645 52.1399 44.6887C54.2519 45.6764 56.4084 45.1035 58.6058 44.7799L51.4161 27.01ZM68.119 42.0197C68.0188 41.7314 67.9649 41.5547 67.8944 41.3836C65.2962 34.9482 62.698 28.5135 60.0997 22.0793C59.7861 21.3056 59.6135 21.2368 58.8433 21.5772C56.9874 22.4005 55.1315 23.2275 53.2757 24.0583C52.4572 24.4303 52.4183 24.5159 52.7653 25.3751C53.9766 28.3796 55.1903 31.3821 56.4065 34.3828C57.7855 37.7921 59.1718 41.1995 60.5377 44.6125C60.7567 45.1556 61.0332 45.4327 61.6327 45.1705C63.6166 44.2907 65.608 43.4221 67.5845 42.5256C67.8109 42.4215 67.9575 42.1741 68.1171 42.0197H68.119ZM19.7196 25.682C19.5748 25.4782 19.4114 25.2882 19.2315 25.1148C17.769 23.943 16.2862 22.7973 14.8293 21.6181C14.319 21.207 13.9719 21.2461 13.5748 21.7799C9.80361 26.9394 6.02195 32.0901 2.22978 37.2323C1.83262 37.7679 1.91614 38.1176 2.41537 38.5063C3.86109 39.6223 5.28455 40.7699 6.721 41.9026C7.33158 42.3824 7.53944 42.3508 8.02012 41.7166C11.8086 36.572 15.5958 31.4261 19.3818 26.2791C19.5044 26.0859 19.6171 25.8866 19.7196 25.682ZM15.8222 45.6503C15.4911 45.668 15.1673 45.7544 14.8712 45.9039C14.575 46.0534 14.3131 46.2628 14.1018 46.5189C12.7637 48.1724 11.4312 49.8352 10.2045 51.5668C9.35078 52.7683 9.70711 54.4553 10.8429 55.3815C12.014 56.3357 13.7548 56.3357 14.7402 55.1862C16.1694 53.5552 17.4923 51.8337 18.7007 50.0323C19.9423 48.1166 18.4167 45.6429 15.8148 45.6503H15.8222ZM24.8678 53.6034C24.8197 53.0041 24.6034 52.4307 24.2438 51.9495C23.8841 51.4683 23.3959 51.0989 22.8356 50.8842C22.312 50.6844 21.738 50.6596 21.1992 50.8135C20.6604 50.9673 20.1857 51.2916 19.8458 51.7379C18.6914 53.1849 17.563 54.6543 16.4421 56.1274C15.4102 57.4833 15.5772 59.1144 16.8133 60.0723C18.0029 60.9911 19.6639 60.7512 20.6939 59.4864C21.8204 58.1045 22.9525 56.7281 24.0215 55.3034C24.3834 54.8068 24.5838 54.1744 24.8603 53.6034H24.8678ZM24.6042 64.0414L24.71 64.2088C25.2464 63.8926 25.9108 63.6843 26.2931 63.236C27.258 62.0794 28.163 60.8738 29.0045 59.6241C29.339 59.1311 29.4721 58.5283 29.3764 57.9399C29.2807 57.3515 28.9634 56.8223 28.49 56.4613C28.0166 56.1004 27.4231 55.9351 26.8317 55.9996C26.2403 56.0641 25.6962 56.3535 25.3113 56.8081C24.3834 57.9017 23.4814 59.0233 22.6055 60.156C22.3106 60.5061 22.1327 60.9401 22.0967 61.3968C22.0608 61.8536 22.1686 62.3101 22.405 62.7022C22.6076 63.1096 22.9207 63.4513 23.3084 63.6882C23.6962 63.9251 24.1427 64.0475 24.5968 64.0414H24.6042ZM34.5684 62.758C34.5424 62.2608 34.3728 61.7818 34.0802 61.3793C33.7877 60.9768 33.3847 60.6681 32.9204 60.4908C32.4534 60.3105 31.941 60.2855 31.4588 60.4195C30.9766 60.5535 30.5501 60.8393 30.2424 61.2348C29.7227 61.8857 29.2031 62.5367 28.7206 63.2156C27.9095 64.3613 28.1768 65.8195 29.32 66.6435C30.4632 67.4674 31.9535 67.2777 32.7645 66.1543C33.2768 65.4408 33.7483 64.6987 34.1768 63.9317C34.3791 63.5764 34.4385 63.1486 34.561 62.758H34.5684Z" fill="#2A2B2E" stroke="#2A2B2E" stroke-width="0.5"/>
<path d="M35.0054 0C37.1994 0.00110443 39.3439 0.65427 41.1675 1.87689C42.9912 3.09951 44.4121 4.83666 45.2505 6.86863C46.0889 8.90061 46.3073 11.1361 45.8779 13.2925C45.4485 15.4488 44.3907 17.4291 42.8382 18.9829C41.2857 20.5367 39.3083 21.5942 37.1561 22.0216C35.0039 22.4491 32.7736 22.2273 30.7471 21.3843C28.7207 20.5413 26.9893 19.115 25.7718 17.2857C24.5543 15.4564 23.9054 13.3064 23.9072 11.1076C23.9209 8.1633 25.0951 5.34377 27.1738 3.26324C29.2526 1.18271 32.0675 0.0097823 35.0054 0ZM25.7909 11.1094C25.7891 12.9337 26.3269 14.7177 27.3364 16.2358C28.3459 17.7538 29.7818 18.938 31.4626 19.6385C33.1434 20.339 34.9937 20.5245 36.7796 20.1714C38.5655 19.8184 40.207 18.9427 41.4965 17.6551C42.786 16.3674 43.6657 14.7256 44.0244 12.937C44.3831 11.1485 44.2048 9.29351 43.5119 7.60651C42.819 5.91951 41.6427 4.47621 40.1316 3.459C38.6205 2.4418 36.8424 1.89634 35.0221 1.89156C33.8111 1.88592 32.6109 2.12025 31.4906 2.58108C30.3702 3.04191 29.3518 3.72015 28.494 4.57679C27.6361 5.43343 26.9556 6.45158 26.4918 7.57268C26.0279 8.69379 25.7897 9.89574 25.7909 11.1094Z" fill="#2A2B2E" stroke="#2A2B2E" stroke-width="0.5"/>
<path d="M33.3644 12.5937C34.9864 10.9551 36.499 9.43178 38.0208 7.89733C38.5423 7.37655 39.1547 7.35051 39.5222 7.8248C39.6015 7.91121 39.6627 8.0127 39.7022 8.12325C39.7417 8.2338 39.7586 8.35116 39.7521 8.46839C39.7455 8.58563 39.7155 8.70035 39.6639 8.80576C39.6123 8.91118 39.5401 9.00515 39.4517 9.08212C37.6774 10.8788 35.8946 12.6668 34.103 14.4462C33.652 14.8926 33.1454 14.887 32.6888 14.4462C31.9743 13.7506 31.2672 13.0494 30.5806 12.3277C30.1593 11.885 30.1686 11.3326 30.5806 10.9737C31.0185 10.5849 31.4807 10.6203 31.8797 11.0165C32.3641 11.5 32.8299 12.0208 33.3644 12.5937Z" fill="#2A2B2E" stroke="#2A2B2E" stroke-width="0.5"/>
</g>
<defs>
<clipPath id="clip0_398_5341">
<rect width="69.8589" height="69" fill="white" transform="translate(0.0705566)"/>
</clipPath>
</defs>
</svg>
