<svg width="70" height="69" viewBox="0 0 70 69" fill="none" xmlns="http://www.w3.org/2000/svg">
<g clip-path="url(#clip0_398_5357)">
<path d="M6.49846 29.9897V29.0613C6.49846 23.5019 6.49846 17.9432 6.49846 12.3851C6.49846 9.42712 8.16961 7.18592 10.836 6.62887C11.8183 6.42462 12.8525 6.46176 13.8775 6.38748C13.9444 5.73573 13.9592 5.06356 14.0892 4.41738C14.5831 1.94779 16.7835 0.0649593 19.3106 0.0296794C22.8275 -0.0185983 26.348 -2.99534e-05 29.8686 -2.99534e-05C38.0387 -2.99534e-05 46.2143 -2.99534e-05 54.3955 -2.99534e-05C57.3108 -2.99534e-05 59.539 1.68969 60.1517 4.36539C60.27 4.97693 60.3211 5.59958 60.304 6.22222C60.3126 14.1658 60.3126 22.1099 60.304 30.0547C60.304 30.66 60.4897 30.946 61.0467 31.1688C63.3933 32.1509 65.8341 32.8906 68.3311 33.3766C69.2836 33.5623 69.538 33.9132 69.4266 34.8732C68.6046 41.8945 65.7395 47.9484 60.8313 53.0349C60.654 53.1952 60.5144 53.3926 60.4222 53.6131C60.3301 53.8337 60.2878 54.0718 60.2984 54.3105C60.3408 55.2822 60.3284 56.2555 60.2613 57.2258C60.0013 60.3118 57.6413 62.4825 54.5366 62.54C54.0093 62.5512 53.4801 62.54 52.9323 62.54C52.8692 63.1862 52.8544 63.786 52.7467 64.3672C52.249 67.0187 50.0338 68.9498 47.3321 68.9721C42.0977 69.0167 36.8633 68.9925 31.6289 68.9944C25.2129 68.9944 18.7975 68.9944 12.3828 68.9944C9.50653 68.9944 7.29504 67.3232 6.66929 64.6717C6.54777 64.1049 6.49047 63.5263 6.49846 62.9467C6.47989 60.6776 6.49846 58.4067 6.49846 56.1377V55.3708C5.72973 55.3262 5.03527 55.3374 4.35567 55.2371C3.3095 55.1037 2.3484 54.5918 1.65391 53.7981C0.959426 53.0044 0.579641 51.9839 0.586296 50.9292C0.559062 45.4404 0.549159 39.951 0.556587 34.461C0.556587 31.9877 2.22774 30.2125 4.6899 30.0046C5.2451 29.9489 5.804 29.9897 6.49846 29.9897ZM16.0927 55.3337C16.0927 55.939 16.0723 56.4478 16.0927 56.951C16.1911 58.9805 17.6023 60.3601 19.6337 60.362C31.2823 60.3756 42.9314 60.3799 54.5812 60.375C54.8815 60.3795 55.1814 60.3483 55.4743 60.2821C57.4742 59.7864 58.501 57.9184 58.0516 55.6215C56.7797 56.3512 56.7426 56.3939 55.5783 55.3578C54.299 54.2233 53.0103 53.0776 51.8795 51.8001C47.6329 47.002 45.1652 41.3814 44.389 35.0217C44.2498 33.8705 44.467 33.5734 45.6164 33.3636C49.0605 32.7462 52.3863 31.592 55.4725 29.9433C56.3173 29.4902 57.1195 28.9109 58.1389 29.8319V29.0594C58.1389 21.3239 58.1389 13.5871 58.1389 5.849C58.1389 3.6208 56.6794 2.15204 54.4364 2.15019C42.8794 2.14276 31.3231 2.14276 19.7674 2.15019C17.5652 2.15019 16.1262 3.60037 16.089 5.80815C16.0742 6.7997 16.089 7.79125 16.089 8.77909C16.089 17.8157 16.089 26.848 16.089 35.8759C16.089 36.121 16.1132 36.3661 16.128 36.6743C17.1474 36.6743 18.0944 36.6409 19.0377 36.6743C21.4051 36.7765 23.2304 38.5312 23.2787 40.8819C23.3468 44.2156 23.3468 47.5498 23.2787 50.8847C23.2267 53.4304 21.2269 55.2835 18.683 55.3169C17.8567 55.3337 17.0267 55.3337 16.0927 55.3337ZM2.74208 38.2508C2.72723 38.4755 2.71237 38.6073 2.71237 38.741C2.71237 42.722 2.71237 46.7049 2.71237 50.6879C2.71237 52.229 3.64079 53.1482 5.18753 53.15C9.65508 53.15 14.1239 53.15 18.5939 53.15C20.265 53.15 21.16 52.255 21.1619 50.5746C21.1619 47.5405 21.1619 44.5077 21.1619 41.4761C21.1619 39.714 20.2762 38.8208 18.5252 38.819C14.6258 38.819 10.745 38.819 6.85497 38.819C5.47906 38.8078 4.08457 38.9805 2.74208 38.2508ZM67.3135 35.447C67.2673 35.4131 67.2182 35.3832 67.1668 35.3578C63.7134 34.5763 60.3725 33.3616 57.2235 31.7426C57.1327 31.7073 57.0356 31.6909 56.9382 31.6944C56.8408 31.6979 56.7452 31.7213 56.6572 31.763C53.4675 33.3849 50.0923 34.6126 46.6061 35.4191C47.7202 42.8353 51.1219 48.9313 56.9635 53.7089C62.7067 48.8793 66.1419 42.813 67.3135 35.4377V35.447ZM50.6466 62.5567H33.0512C28.6746 62.5567 24.2962 62.5178 19.9197 62.579C16.6182 62.6255 13.9778 60.1651 13.9481 56.873C13.9481 56.3735 13.9481 55.8721 13.9481 55.3764H8.6561V56.0764C8.6561 58.3937 8.6561 60.7098 8.6561 63.0247C8.6561 65.4868 10.019 66.8572 12.4812 66.8572C23.9453 66.8572 35.4094 66.8572 46.8735 66.8572C49.4229 66.859 50.9065 65.2027 50.6466 62.5419V62.5567ZM13.8924 36.6186V8.6324C13.3353 8.6324 12.834 8.6324 12.3289 8.6324C10.0803 8.64911 8.65982 10.0789 8.65796 12.3461C8.65796 18.3684 8.65796 24.3901 8.65796 30.4112V36.6223L13.8924 36.6186ZM6.41862 32.2681C5.80029 32.2681 5.24695 32.2272 4.70104 32.2773C4.16765 32.3319 3.67333 32.582 3.31334 32.9793C2.95335 33.3767 2.75317 33.8932 2.75137 34.4294C2.74022 35.5899 3.40683 36.4719 4.4708 36.5815C5.11938 36.6203 5.76957 36.6246 6.41862 36.5945V32.2681Z" fill="#AADF17"/>
<path d="M28.244 29.0001C27.0166 29.0001 25.7892 29.0149 24.5619 29.0001C21.9623 28.9666 20.4248 27.4162 20.4081 24.824C20.3951 22.6701 20.4081 20.5162 20.4081 18.3622C20.4081 16.8601 20.9652 15.6791 22.2148 14.8101C22.4186 14.6214 22.5395 14.3597 22.5509 14.0822C22.6215 12.9273 22.5156 11.7519 22.6995 10.6211C22.9368 9.23686 23.6827 7.99121 24.7908 7.12835C25.899 6.26549 27.2894 5.84764 28.6896 5.95673C31.746 6.21668 33.9222 8.50616 33.9834 11.5272C33.9834 11.945 34.0132 12.3628 33.9834 12.7769C33.8962 13.839 33.9742 14.7303 35.0307 15.434C35.8793 15.9911 36.1448 17.0606 36.1597 18.0949C36.1782 20.3881 36.1968 22.6812 36.1597 24.9651C36.1225 27.2491 34.4439 28.9314 32.147 28.9871C30.8398 29.0242 29.5419 29.0001 28.244 29.0001ZM28.1121 26.9575C29.4119 26.9575 30.7024 26.9724 31.9966 26.9575C33.1906 26.939 33.8535 26.3002 33.8702 25.1118C33.8937 22.8688 33.8937 20.6251 33.8702 18.3808C33.8572 17.133 33.2259 16.511 31.9669 16.5017C29.4231 16.4831 26.8792 16.4831 24.3353 16.5017C23.108 16.5128 22.4544 17.1832 22.4469 18.4105C22.4296 20.6065 22.4296 22.8032 22.4469 25.0004C22.4469 26.3002 23.1228 26.9482 24.4356 26.9594C25.6611 26.9687 26.8866 26.9612 28.1121 26.9594V26.9575ZM31.7627 14.1862C31.7627 13.0851 31.8704 12.036 31.7385 11.0166C31.5268 9.39373 30.0804 8.17007 28.4946 8.09394C26.8068 8.00853 25.2062 9.07807 24.8775 10.7269C24.6547 11.841 24.7327 13.0071 24.6751 14.1862H31.7627Z" fill="#AADF17"/>
<path d="M37.9262 56.6001C34.6173 56.6001 31.3084 56.6001 27.9995 56.6001C27.1769 56.6001 26.6997 56.147 26.7703 55.447C26.8279 54.9085 27.1045 54.539 27.682 54.4814C27.9129 54.4613 28.1447 54.4532 28.3765 54.4573H47.3942C47.6254 54.4522 47.8568 54.4621 48.0868 54.487C48.6921 54.5724 48.9669 54.9605 48.9651 55.5435C48.9632 56.1266 48.6457 56.5109 48.0589 56.5834C47.6437 56.6146 47.2271 56.6208 46.8111 56.6019L37.9262 56.6001Z" fill="#AADF17"/>
<path d="M35.6591 49.4939C33.1363 49.4939 30.6129 49.4939 28.0888 49.4939C27.4835 49.4939 26.9747 49.3546 26.8058 48.688C26.762 48.5493 26.7481 48.4029 26.765 48.2585C26.7819 48.114 26.8292 47.9748 26.9037 47.8499C26.9783 47.7251 27.0784 47.6174 27.1975 47.534C27.3166 47.4505 27.4521 47.3933 27.5949 47.366C27.7302 47.336 27.8685 47.3216 28.0071 47.3232C33.101 47.3232 38.1943 47.3232 43.287 47.3232C44.1894 47.3232 44.6537 47.8283 44.5237 48.597C44.429 49.1708 43.9852 49.4865 43.2239 49.4883C40.706 49.4976 38.1826 49.4939 35.6591 49.4939Z" fill="#AADF17"/>
<path d="M31.7866 35.2427C29.239 35.2427 26.6933 35.2427 24.1457 35.2427C23.5218 35.2427 23.0483 35.0663 22.9128 34.3886C22.8749 34.2425 22.8699 34.0899 22.8981 33.9417C22.9262 33.7935 22.9869 33.6534 23.0757 33.5314C23.1644 33.4095 23.2791 33.3087 23.4115 33.2363C23.5439 33.164 23.6906 33.1218 23.8412 33.1129C23.9562 33.1064 24.0715 33.1064 24.1866 33.1129C29.2805 33.1129 34.3738 33.1129 39.4665 33.1129C39.9567 33.1129 40.3949 33.1816 40.6474 33.67C41.0503 34.4406 40.5137 35.2464 39.5574 35.252C37.2884 35.2687 35.0193 35.252 32.7503 35.252L31.7866 35.2427Z" fill="#AADF17"/>
<path d="M34.262 42.3767H28.0843C27.5161 42.3767 27.0185 42.2616 26.8254 41.6339C26.7711 41.4867 26.7506 41.3292 26.7654 41.173C26.7802 41.0169 26.8299 40.866 26.9108 40.7316C26.9918 40.5972 27.1018 40.4827 27.233 40.3965C27.3641 40.3104 27.5129 40.2548 27.6684 40.2339C27.8062 40.2156 27.9454 40.2094 28.0843 40.2153C32.2027 40.2153 36.3224 40.2153 40.4434 40.2153C41.3142 40.2153 41.7432 40.5867 41.7432 41.3034C41.7432 42.0202 41.3291 42.3767 40.4434 42.3785C38.3823 42.3804 36.3231 42.3767 34.262 42.3767Z" fill="#AADF17"/>
<path d="M46.9559 23.1862C48.8536 23.1862 50.7532 23.1695 52.6509 23.1862C53.544 23.1973 54.0398 23.8509 53.765 24.5937C53.5793 25.1117 53.1708 25.3364 52.6267 25.3364C48.8295 25.3364 45.0323 25.3364 41.235 25.3364C40.4533 25.3364 40.0578 24.965 40.0485 24.2892C40.0392 23.6133 40.405 23.2085 41.1905 23.1992C43.1123 23.1732 45.0341 23.1862 46.9559 23.1862Z" fill="#AADF17"/>
<path d="M46.9309 16.3977C48.7599 16.3977 50.5889 16.3977 52.4179 16.3977C53.3686 16.3977 53.8235 16.7412 53.8272 17.4394C53.8309 18.1376 53.3389 18.5312 52.4402 18.5312C48.7376 18.5312 45.0339 18.5312 41.3289 18.5312C40.4599 18.5312 40.0718 18.2081 40.0495 17.5118C40.0272 16.7839 40.406 16.4088 41.236 16.3977C43.1337 16.3903 45.0314 16.3996 46.9309 16.3977Z" fill="#AADF17"/>
<path d="M44.0325 9.4828C44.961 9.4828 45.8894 9.4828 46.8048 9.4828C47.5698 9.49394 47.9932 9.87831 47.9987 10.5319C48.0043 11.1855 47.568 11.6237 46.8345 11.6312C44.9405 11.6522 43.0466 11.6522 41.1526 11.6312C40.3913 11.62 40.0236 11.2022 40.0496 10.5059C40.0719 9.86345 40.46 9.49766 41.1916 9.48466C42.1386 9.4698 43.0781 9.4828 44.0325 9.4828Z" fill="#AADF17"/>
<path d="M55.0775 43.3998C57.2147 41.2589 59.2238 39.2442 61.2366 37.2314C61.407 37.0434 61.5975 36.8746 61.8048 36.7282C62.0074 36.6065 62.245 36.5563 62.4795 36.5858C62.714 36.6153 62.9318 36.7227 63.098 36.8908C63.2642 37.0589 63.369 37.2779 63.3958 37.5128C63.4226 37.7476 63.3697 37.9846 63.2457 38.1858C63.1255 38.355 62.9873 38.5107 62.8335 38.65C60.6053 40.8782 58.3801 43.1064 56.1581 45.3346C55.3226 46.1684 54.9215 46.1609 54.0692 45.3105C53.2837 44.5269 52.4927 43.7452 51.7147 42.9542C51.1372 42.3656 51.0964 41.7899 51.5699 41.3109C52.0434 40.8318 52.6524 40.8857 53.2132 41.4483C53.8297 42.061 54.422 42.7072 55.0775 43.3998Z" fill="#AADF17"/>
<path d="M31.1801 21.2793C31.1504 22.1558 30.6899 23.0452 29.6946 23.6654C29.4701 23.8179 29.312 24.0503 29.2527 24.3153C29.1357 25.006 28.7681 25.4294 28.1646 25.4461C27.5611 25.4628 27.1118 25.0561 27.1192 24.332C27.1192 23.8288 26.7905 23.7267 26.4953 23.5298C25.9021 23.1342 25.466 22.5436 25.2625 21.8603C25.059 21.1769 25.101 20.4439 25.3812 19.7883C25.9383 18.4885 27.3309 17.7866 28.8126 18.0819C30.2331 18.3623 31.1745 19.5339 31.1801 21.2793ZM28.2092 21.9905C28.6845 21.9775 29.002 21.7027 29.0095 21.1475C29.0095 20.6424 28.7774 20.3119 28.2352 20.2915C27.693 20.2711 27.3643 20.5552 27.3067 21.0937C27.2548 21.5969 27.6224 21.9738 28.2222 21.9905H28.2092Z" fill="#AADF17"/>
</g>
<defs>
<clipPath id="clip0_398_5357">
<rect width="68.8867" height="69" fill="white" transform="translate(0.556641)"/>
</clipPath>
</defs>
</svg>
