<svg width="70" height="69" viewBox="0 0 70 69" fill="none" xmlns="http://www.w3.org/2000/svg">
<path d="M69.4895 28.2486C69.3098 29.6215 69.1714 30.9979 68.9684 32.3671C68.1562 37.8565 66.2731 42.9794 63.5778 47.8112C62.8356 49.1409 61.9606 50.3933 61.2418 51.7356C60.5949 52.9467 60.0828 54.2315 59.4683 55.5827C60.9705 55.8307 62.0846 56.3823 62.8087 57.5413C63.3783 58.4541 63.5382 59.4514 63.4448 60.5079C63.2543 62.6408 61.8959 63.922 59.1952 64.409C59.3515 65.1385 59.5042 65.868 59.6678 66.594C59.7217 66.8347 59.8079 67.0665 59.8708 67.3037C60.0505 68.0225 59.763 68.6101 59.1287 68.8131C58.4944 69.0161 57.8835 68.6783 57.6912 67.965C57.4163 66.9965 57.215 66.01 56.9832 65.0289C56.9329 64.8151 56.8934 64.5994 56.8449 64.3748H42.973C42.973 65.2912 42.973 66.1717 42.973 67.0701C42.9823 67.3389 42.9709 67.6081 42.9388 67.8751C42.9005 68.1559 42.7599 68.4127 42.5441 68.5963C42.3283 68.78 42.0524 68.8776 41.7691 68.8706C41.6233 68.8671 41.4797 68.8348 41.3465 68.7756C41.2133 68.7163 41.0931 68.6313 40.9929 68.5254C40.8926 68.4195 40.8144 68.2949 40.7626 68.1586C40.7107 68.0223 40.6864 67.8771 40.691 67.7314C40.6694 66.6353 40.691 65.5392 40.691 64.3982C38.1861 64.1915 36.5581 62.9607 36.2742 60.3804C36.037 58.2241 36.993 56.8351 39.2876 55.7696C39.2265 55.3743 39.1618 54.9592 39.1079 54.5459C38.5527 50.7473 39.5032 47.2596 41.2983 43.9443C41.7799 43.0603 42.2794 42.1834 42.8149 41.3299C44.1679 39.1736 45.2963 36.9527 46.0169 34.4856C46.4356 33.0481 47.1849 31.6663 48.0222 30.4175C49.28 28.5505 51.0446 27.4472 53.4128 27.9953C55.7488 28.5343 56.8538 30.2504 57.3839 32.4407C57.4253 32.6204 57.4558 32.8001 57.4989 32.9636C57.5079 32.9978 57.5564 33.0229 57.6229 33.084C58.8895 31.3426 59.8083 29.3732 60.329 27.2837C60.6989 25.7632 60.9346 24.2131 61.0334 22.6514C61.2454 18.939 64.6092 17.9795 66.7834 18.8186C68.4599 19.4673 69.2253 20.7593 69.3709 22.4897C69.4032 22.885 69.4625 23.2803 69.511 23.6756L69.4895 28.2486ZM49.7796 62.0443C52.9169 62.0443 56.056 62.0568 59.1934 62.0443C60.3883 62.0443 61.1574 61.2267 61.1789 60.0443C61.2005 58.862 60.4889 58.03 59.3048 57.9276C58.9454 57.8953 58.586 57.9276 58.2267 57.9007C57.2995 57.845 56.8754 57.2772 57.0587 56.359C57.5324 54.1215 58.3779 51.9793 59.5599 50.0214C60.8267 47.8651 62.1367 45.7089 63.2004 43.4502C66.2928 36.8826 67.6387 29.9593 67.0547 22.6927C66.9918 21.9272 66.7169 21.2929 65.955 20.9911C65.6355 20.8482 65.2824 20.7972 64.9355 20.8439C64.5886 20.8906 64.2615 21.033 63.991 21.2552C63.452 21.6847 63.3478 22.301 63.319 22.9425C63.0764 28.175 61.1987 32.7372 57.7217 36.6526C57.5094 36.878 57.3595 37.1548 57.2869 37.4558C56.7478 40.2284 55.7038 42.8141 54.4335 45.3172C53.9681 46.2336 53.4721 47.1392 52.9492 48.025C52.8774 48.1595 52.7787 48.2777 52.6592 48.3723C52.5397 48.467 52.402 48.536 52.2547 48.5751C52.1074 48.6142 51.9536 48.6226 51.8029 48.5996C51.6522 48.5767 51.5078 48.523 51.3788 48.4419C51.1257 48.2921 50.9408 48.0497 50.8633 47.7659C50.7858 47.4822 50.8218 47.1794 50.9637 46.9218C51.129 46.5786 51.3356 46.2587 51.5189 45.9245C53.2098 42.85 54.6742 39.6875 55.1576 36.1675C55.3535 34.7407 55.3786 33.3015 54.8144 31.9304C53.9878 29.9233 52.0508 29.4939 50.5019 31.0104C49.9981 31.5189 49.5669 32.0945 49.2207 32.7211C48.797 33.407 48.4687 34.1476 48.245 34.9222C47.5029 37.9302 46.0061 40.5644 44.3745 43.1447C44.0385 43.6748 43.7367 44.2229 43.433 44.7727C41.6721 47.9586 40.7377 51.2972 41.4726 54.9682C41.5696 55.4623 41.7421 55.624 42.2506 55.6204C45.5892 55.5971 48.9296 55.6079 52.2682 55.6115C52.5368 55.599 52.8058 55.6232 53.0678 55.6833C53.3097 55.752 53.5216 55.8999 53.6693 56.1034C53.8169 56.3069 53.8919 56.5542 53.8822 56.8055C53.8725 57.0567 53.7785 57.2974 53.6155 57.4889C53.4525 57.6803 53.2299 57.8115 52.9834 57.8611C52.7177 57.9019 52.4488 57.9175 52.1802 57.9079C48.4594 57.9079 44.7387 57.9079 41.018 57.9079C40.7266 57.9027 40.4352 57.9201 40.1465 57.96C39.7327 58.0205 39.3506 58.2165 39.06 58.5172C38.7693 58.8179 38.5865 59.2065 38.5401 59.6221C38.3478 61.0272 39.2013 62.0389 40.6263 62.0461C43.6828 62.055 46.7303 62.0443 49.7796 62.0443Z" fill="#AADF17"/>
<path d="M36.393 0C37.5465 0.264141 38.7289 0.438438 39.8465 0.808594C43.014 1.86652 45.7397 3.94783 47.5944 6.72487C49.4492 9.5019 50.3276 12.8169 50.0916 16.148C49.8555 19.4791 48.5182 22.6371 46.2904 25.1248C44.0625 27.6125 41.0705 29.2886 37.7855 29.8892C28.0824 31.6861 19.2508 23.7691 19.9965 13.9581C20.2626 10.4751 21.7286 7.19219 24.1445 4.66915C26.5604 2.1461 29.7766 0.539119 33.2448 0.122188C33.4 0.0913034 33.5531 0.0504904 33.703 0L36.393 0ZM35.0579 27.8516C37.5849 27.8494 40.0545 27.0982 42.1546 25.6927C44.2547 24.2873 45.891 22.2908 46.8566 19.9556C47.8223 17.6204 48.0739 15.0513 47.5797 12.5731C47.0856 10.0949 45.8678 7.81886 44.0803 6.03264C42.2928 4.24641 40.0159 3.03023 37.5374 2.5378C35.0588 2.04538 32.4899 2.29882 30.1554 3.2661C27.8209 4.23338 25.8255 5.87108 24.4216 7.97216C23.0176 10.0732 22.2681 12.5434 22.2677 15.0704C22.2706 18.4608 23.6193 21.7115 26.0176 24.1081C28.4158 26.5046 31.6674 27.8511 35.0579 27.8516Z" fill="#AADF17"/>
<path d="M30.8224 55.7696C33.5069 56.8136 34.0568 58.8728 33.8268 60.65C33.5591 62.7217 32.1898 63.8933 29.4137 64.4108V66.9264C29.4137 67.196 29.4298 67.4655 29.4137 67.7332C29.3759 68.3945 28.9303 68.8473 28.3176 68.8671C27.7462 68.885 27.1837 68.4753 27.164 67.8662C27.1101 66.249 27.0921 64.6318 27.146 63.029C27.1676 62.3875 27.6976 62.0857 28.3266 62.0551C28.7955 62.0317 29.2681 62.0551 29.7371 62.0317C30.7991 61.9617 31.534 61.1675 31.5627 60.0767C31.5987 58.9232 30.9428 58.1002 29.8611 57.9403C29.6825 57.9155 29.5023 57.9035 29.322 57.9043C23.2701 57.9043 17.2207 57.9043 11.1736 57.9043C9.85468 57.9043 9.06585 58.5386 8.93647 59.6545C8.77116 61.0812 9.60491 62.0389 11.0586 62.0425C14.6685 62.0533 18.2766 62.0425 21.8848 62.0515C22.1979 62.039 22.5112 62.0705 22.8155 62.145C23.0594 62.2054 23.2728 62.353 23.4154 62.5598C23.5581 62.7667 23.6202 63.0185 23.59 63.268C23.5903 63.5303 23.4926 63.7833 23.3161 63.9774C23.1396 64.1715 22.897 64.2928 22.6358 64.3174C22.4135 64.3435 22.1894 64.3525 21.9656 64.3443H13.2957C13.0405 65.444 12.8213 66.4916 12.5518 67.5284C12.2823 68.5652 11.7324 69.0234 11.0208 68.8347C10.2482 68.6317 10.0362 67.9974 10.3308 66.9103C10.5105 66.2203 10.6651 65.5195 10.8196 64.8205C10.8334 64.6723 10.8334 64.5231 10.8196 64.3749C9.4953 64.2743 8.33272 63.8358 7.51155 62.7325C6.88671 61.899 6.5693 60.875 6.61311 59.8342C6.66522 57.6114 7.90507 56.2117 10.4243 55.5971C10.4122 55.4304 10.3802 55.2657 10.3291 55.1066C9.6696 53.6907 9.13054 52.1992 8.30757 50.8839C5.61225 46.5858 3.456 42.0649 2.11913 37.1648C0.786698 32.3603 0.321216 27.3569 0.744519 22.3891C0.95116 20.0226 2.62225 18.5186 5.00671 18.5564C7.31749 18.5905 8.9221 20.1735 9.0335 22.6281C9.13772 24.9353 9.54022 27.1742 10.4458 29.2927C11.0029 30.6008 11.7126 31.8442 12.3541 33.1164L12.5733 33.0697C12.6686 32.6762 12.753 32.2827 12.8608 31.8928C13.5544 29.3394 15.5939 27.7312 18.0394 27.8552C19.8004 27.945 21.0115 28.9836 22.0213 30.3097C23.1143 31.7664 23.9082 33.4251 24.3573 35.19C24.8334 36.9869 25.6492 38.6167 26.6087 40.1871C27.9851 42.4422 29.3921 44.6793 30.2618 47.195C31.172 49.7395 31.3927 52.4797 30.9015 55.1371C30.8691 55.3438 30.8566 55.536 30.8224 55.7696ZM20.6611 55.5989C23.0599 55.5989 25.4587 55.5882 27.8486 55.6097C28.3158 55.6097 28.508 55.4875 28.6015 55.0078C29.0884 52.4921 28.9842 50.0053 27.9492 47.6891C26.9322 45.4089 25.6582 43.24 24.4363 41.0568C23.5271 39.4307 22.6826 37.7973 22.1938 35.9789C21.7284 34.2449 21.0762 32.5648 19.8112 31.2225C18.1724 29.4814 15.6891 30.0258 15.0315 32.3294C14.7531 33.2734 14.6838 34.2668 14.8284 35.2403C15.1393 37.0372 15.5472 38.8521 16.1851 40.5519C17.0008 42.6992 18.0969 44.7386 19.078 46.8194C19.3943 47.4914 19.2469 48.1275 18.6755 48.4492C18.5441 48.5264 18.3983 48.5758 18.247 48.5944C18.0957 48.613 17.9422 48.6003 17.796 48.5572C17.6498 48.5141 17.514 48.4414 17.397 48.3437C17.28 48.246 17.1843 48.1253 17.1158 47.9892C15.2237 44.7278 13.6066 41.3461 12.8321 37.6158C12.7239 37.2361 12.5453 36.8802 12.3056 36.5664C11.2455 34.9942 10.0308 33.5117 9.11975 31.8514C7.57624 29.0483 6.87546 25.9757 6.75686 22.77C6.71194 21.5266 6.00218 20.8438 4.88991 20.8438C3.82257 20.8438 3.13796 21.514 3.04093 22.655C2.70182 26.7492 3.00005 30.8711 3.92499 34.8738C5.16483 40.3309 7.51874 45.2957 10.4656 50.0214C11.4126 51.538 12.0037 53.2864 12.6758 54.9628C12.8644 55.4336 13.0118 55.6295 13.5347 55.6241C15.9101 55.5846 18.2784 55.5989 20.6611 55.5989Z" fill="#AADF17"/>
<path d="M14.9894 26.2991C14.5869 25.9037 14.1755 25.6468 13.985 25.2766C13.8725 25.0623 13.8488 24.8123 13.9191 24.5807C13.9894 24.349 14.1479 24.1543 14.3605 24.0386C15.1738 23.5705 16.0137 23.1505 16.8762 22.7808C17.3541 22.5777 17.8069 22.7916 18.1106 23.2156C18.4143 23.6397 18.4934 24.2237 18.0873 24.5022C17.1493 25.1562 16.1107 25.6666 14.9894 26.2991Z" fill="#AADF17"/>
<path d="M54.9791 26.0906C54.821 26.0519 54.6661 26.0014 54.5155 25.9397C53.7968 25.5911 53.0565 25.2551 52.3593 24.8615C52.2268 24.7969 52.1088 24.7062 52.0124 24.5947C51.916 24.4832 51.8431 24.3534 51.7983 24.213C51.7534 24.0726 51.7375 23.9246 51.7515 23.7779C51.7654 23.6311 51.809 23.4888 51.8795 23.3593C51.9425 23.2275 52.031 23.1094 52.1399 23.012C52.2488 22.9146 52.376 22.8397 52.514 22.7917C52.652 22.7438 52.7982 22.7237 52.9441 22.7326C53.0899 22.7415 53.2326 22.7792 53.3637 22.8436C54.1202 23.1797 54.8605 23.5498 55.5901 23.9379C55.8273 24.0515 56.0138 24.2492 56.1134 24.4926C56.2131 24.736 56.2186 25.0078 56.1291 25.2551C55.9836 25.7869 55.5757 26.0547 54.9791 26.0906Z" fill="#AADF17"/>
<path d="M14.8393 4.00342C15.0779 4.04966 15.3127 4.11332 15.5419 4.19389C16.2607 4.54068 16.9992 4.88029 17.6982 5.27201C17.8312 5.33389 17.9506 5.42182 18.0491 5.5306C18.1476 5.63938 18.2233 5.76681 18.2717 5.90534C18.3201 6.04388 18.3402 6.19072 18.3309 6.33717C18.3216 6.48363 18.283 6.62673 18.2175 6.75803C17.9497 7.34021 17.3352 7.581 16.6919 7.29709C15.9372 6.96287 15.1951 6.59631 14.4674 6.20459C13.9463 5.92248 13.7486 5.396 13.9768 4.88748C14.1565 4.50834 14.5842 4.25318 14.8393 4.00342Z" fill="#AADF17"/>
<path d="M52.9739 7.54692C52.3701 7.3816 52.009 7.13004 51.8311 6.63231C51.6406 6.09325 51.7987 5.61168 52.2659 5.34754C53.0635 4.8974 53.8867 4.49421 54.7312 4.14004C55.2505 3.91723 55.7051 4.15621 56.0034 4.60903C56.3017 5.06184 56.3287 5.62785 55.9208 5.89918C54.9864 6.52809 53.9622 7.00785 52.9739 7.54692Z" fill="#AADF17"/>
<path d="M56.0992 16.2078C55.6761 16.2321 55.2519 16.2321 54.8288 16.2078C54.546 16.1848 54.2831 16.0535 54.0949 15.8412C53.9067 15.6289 53.8078 15.3521 53.819 15.0686C53.8136 14.7854 53.9199 14.5114 54.115 14.306C54.31 14.1005 54.578 13.9801 54.8611 13.9707C55.7308 13.9312 56.6041 13.9312 57.472 13.9707C57.7443 13.9815 58.0016 14.0985 58.1887 14.2966C58.3758 14.4948 58.4778 14.7584 58.4729 15.0308C58.4964 15.3133 58.4078 15.5936 58.2262 15.8112C58.0446 16.0287 57.7846 16.1661 57.5026 16.1934C57.0354 16.2249 56.5668 16.2285 56.0992 16.2042V16.2078Z" fill="#AADF17"/>
<path d="M13.9804 13.9528C14.4045 13.9528 14.8322 13.924 15.2526 13.9528C15.8761 14.0085 16.2122 14.3966 16.2661 15.0057C16.2835 15.1458 16.2723 15.2879 16.2332 15.4235C16.194 15.5591 16.1277 15.6853 16.0384 15.7945C15.949 15.9038 15.8383 15.9937 15.7132 16.0589C15.588 16.124 15.4509 16.1631 15.3101 16.1737C14.3977 16.2348 13.4823 16.2348 12.5699 16.1737C11.9536 16.1306 11.5798 15.6005 11.6247 14.9985C11.6697 14.3966 12.029 14.0103 12.6436 13.9546C13.0856 13.9204 13.5348 13.9528 13.9804 13.9528Z" fill="#AADF17"/>
<path d="M33.8947 20.0154C33.8818 19.8168 33.8818 19.6175 33.8947 19.4189C33.9684 18.8798 33.7851 18.6624 33.2209 18.5204C29.8499 17.6328 27.7584 14.4164 28.1896 10.8819C28.5903 7.6098 31.5121 5.02949 34.8938 4.95222C36.5557 4.91259 38.1762 5.47371 39.4578 6.53257C40.7395 7.59144 41.5962 9.07701 41.8707 10.7166C42.1453 12.3562 41.8193 14.0399 40.9526 15.4585C40.0859 16.8771 38.7366 17.9356 37.1524 18.4396C36.0743 18.781 36.0743 18.781 36.272 20.0226C37.1273 20.0963 38.306 19.8429 38.2881 21.2193C38.2737 22.5346 37.1363 22.3154 36.1947 22.3585C36.1947 22.8491 36.1947 23.2911 36.1947 23.7314C36.1821 24.6999 35.7706 25.2156 35.0249 25.2048C34.2792 25.194 33.9073 24.6891 33.8947 23.7673C33.8947 23.3217 33.8947 22.8689 33.8947 22.3801C32.9747 22.2975 31.7852 22.5598 31.7978 21.1906C31.8103 19.8214 33.0124 20.1089 33.8947 20.0154ZM39.6609 11.8702C39.6616 10.9573 39.3915 10.0648 38.8848 9.30542C38.3782 8.54607 37.6576 7.95408 36.8144 7.60433C35.9712 7.25458 35.0432 7.16279 34.1478 7.34058C33.2524 7.51836 32.4299 7.95774 31.7843 8.60311C31.1387 9.24847 30.699 10.0708 30.5208 10.9662C30.3427 11.8615 30.4341 12.7895 30.7836 13.6329C31.133 14.4762 31.7247 15.197 32.4838 15.7039C33.243 16.2109 34.1354 16.4813 35.0483 16.481C35.6548 16.4843 36.256 16.3673 36.817 16.1368C37.378 15.9063 37.8877 15.5668 38.3167 15.138C38.7456 14.7093 39.0853 14.1997 39.316 13.6387C39.5468 13.0778 39.664 12.4767 39.6609 11.8702Z" fill="#AADF17"/>
</svg>
